<svg width="258" height="53" viewBox="0 0 258 53" fill="none" xmlns="http://www.w3.org/2000/svg">
<g clip-path="url(#clip0_606_8472)">
<path d="M45.4587 45.9568H33.1858V28.4842L30.2688 27.1089V23.2981L33.1858 24.6794V0.5H45.4587V17.8152L41.3617 15.8886V15.8825V4.28656H37.2708V42.1703H41.3617V32.3495L38.4387 30.9681V27.1634L45.4587 30.4713V45.9568Z" fill="#00ABBA"/>
<path d="M29.1068 42.1703V22.7468L20.9249 18.8875V4.28656H25.0158V15.8825L29.1008 17.8212V0.5H16.8339V20.7596L25.0158 24.6249V42.1703H20.9249V26.7878L12.7549 22.9285V0.5H0.5V45.9568H4.58497V22.8619L7.50196 24.2432V20.4324L4.58497 19.0571V4.28656H8.66995V45.9568H12.7549V26.7272L16.8399 28.6599V45.9568H29.1068V42.1703Z" fill="#00ABBA"/>
<path d="M65.1468 13.9801C65.1468 18.2392 63.1762 20.3718 59.229 20.3718C55.5273 20.3718 53.6825 18.3604 53.6825 14.3315C53.6825 13.0289 53.8502 11.7688 54.1856 10.5328L57.0487 10.0057C56.6534 11.4174 56.4557 12.7745 56.4557 14.0831C56.4557 16.8155 57.45 18.1786 59.4386 18.1786C61.4272 18.1786 62.3795 16.8336 62.3795 14.1437V5.49216H65.1468V13.9801ZM58.2047 7.7338C57.9172 7.44905 57.7735 7.10372 57.7735 6.68568C57.7735 6.26765 57.9172 5.94049 58.2047 5.64968C58.4862 5.36493 58.8276 5.22559 59.229 5.22559C59.6303 5.22559 59.9657 5.36493 60.2532 5.64968C60.5347 5.94049 60.6725 6.28582 60.6725 6.68568C60.6725 7.08554 60.5347 7.43088 60.2532 7.72168C59.9657 8.00643 59.6243 8.14578 59.229 8.14578C58.8336 8.14578 58.4862 8.00643 58.2047 7.7338Z" fill="black"/>
<path d="M100.037 17.6395C99.7672 17.3608 99.4438 17.2214 99.0544 17.2214C98.6651 17.2214 98.3417 17.3608 98.0721 17.6455C97.8086 17.9303 97.6708 18.2696 97.6708 18.6634C97.6708 19.0572 97.8026 19.4146 98.0721 19.6933C98.3357 19.972 98.6651 20.1053 99.0544 20.1053C99.4438 20.1053 99.7672 19.9659 100.037 19.6812C100.3 19.3964 100.438 19.0572 100.438 18.6634C100.438 18.2696 100.306 17.9182 100.037 17.6334V17.6395ZM96.5687 17.6395C96.2932 17.3608 95.9578 17.2214 95.5625 17.2214C95.1671 17.2214 94.8497 17.3608 94.5802 17.6455C94.3106 17.9303 94.1788 18.2696 94.1788 18.6634C94.1788 19.0572 94.3106 19.4146 94.5802 19.6933C94.8437 19.972 95.1731 20.1053 95.5625 20.1053C95.9518 20.1053 96.2932 19.9659 96.5687 19.6812C96.8323 19.4025 96.97 19.0632 96.97 18.6634C96.97 18.2635 96.8383 17.9182 96.5687 17.6334V17.6395Z" fill="black"/>
<path d="M143.366 0.5V13.2713H133.974C134.04 12.2353 134.076 11.3205 134.076 10.5329C134.076 8.51538 133.849 6.55243 133.399 4.65006L130.692 5.02569C131.099 6.86747 131.309 8.76378 131.309 10.7207C131.309 11.6234 131.261 12.4776 131.153 13.2713H130.608C129.626 13.2713 128.967 13.1441 128.638 12.8896C128.296 12.6291 128.122 12.0778 128.122 11.2538V5.92235H125.457V10.7267C125.457 12.5382 124.894 13.447 123.774 13.447C123.181 13.447 122.78 13.2289 122.582 12.7927C122.408 12.4292 122.324 11.7324 122.324 10.7086V6.77659H119.557V10.648C119.557 11.6658 119.413 12.3625 119.114 12.7442C118.838 13.1017 118.353 13.2834 117.658 13.2834H109.71V0.5H106.943V13.2713H99.4857V5.49219H96.7184V13.2713H89.0696V10.1088C89.0696 6.8493 87.4883 5.22562 84.3198 5.22562C82.5827 5.22562 81.2171 5.74665 80.2168 6.79477C79.3124 7.75201 78.8631 8.94553 78.8631 10.3814C78.8631 11.4537 78.6475 12.2111 78.2162 12.6654C77.8269 13.0714 77.222 13.2774 76.4014 13.2774H71.2802V0.5H68.5129V15.4766H76.7188C76.8027 15.4766 76.8805 15.4766 76.9584 15.4766C78.6176 15.4281 79.6478 14.8768 80.0491 13.8226C80.9236 14.9313 82.4929 15.4826 84.757 15.4826H117.634C119.072 15.4826 120.006 14.9858 120.432 13.9983C120.797 15.101 121.725 15.6462 123.223 15.6462C124.834 15.6462 125.894 15.101 126.391 14.0165C126.691 14.586 127.14 14.9737 127.733 15.1918C128.284 15.3857 129.135 15.4826 130.279 15.4826H146.121V0.5H143.354H143.366ZM86.3622 13.2713H84.763C82.6666 13.2713 81.6124 12.2777 81.6124 10.2966C81.6124 9.45444 81.834 8.76984 82.2713 8.24275C82.7265 7.70354 83.3434 7.43091 84.1161 7.43091C85.6135 7.43091 86.3622 8.43662 86.3622 10.448V13.2713Z" fill="black"/>
<path d="M149.703 0.5H152.471V15.4766H149.703V0.5Z" fill="black"/>
<path d="M167.822 1.41482C167.553 1.13007 167.229 0.990723 166.84 0.990723C166.451 0.990723 166.127 1.13007 165.858 1.41482C165.594 1.69957 165.456 2.03884 165.456 2.44476C165.456 2.85068 165.588 3.1839 165.858 3.46259C166.121 3.74733 166.451 3.88668 166.84 3.88668C167.229 3.88668 167.559 3.74733 167.822 3.46259C168.086 3.17784 168.223 2.83856 168.223 2.44476C168.223 2.05096 168.092 1.69351 167.822 1.41482ZM164.36 1.41482C164.085 1.13007 163.749 0.990723 163.354 0.990723C162.959 0.990723 162.641 1.13007 162.372 1.41482C162.108 1.69957 161.97 2.03884 161.97 2.44476C161.97 2.85068 162.102 3.1839 162.372 3.46259C162.635 3.74733 162.965 3.88668 163.354 3.88668C163.743 3.88668 164.085 3.74733 164.36 3.46259C164.624 3.17784 164.761 2.83856 164.761 2.44476C164.761 2.05096 164.63 1.69351 164.36 1.41482Z" fill="black"/>
<path d="M186.175 13.2713C184.581 13.2713 183.371 12.9684 182.545 12.3686C181.784 11.8173 181.407 11.06 181.407 10.1088C181.407 9.29091 181.652 8.63659 182.138 8.14585C182.623 7.65512 183.264 7.40672 184.054 7.40672C184.845 7.40672 185.594 7.55818 186.241 7.85505L186.726 5.62552C185.923 5.35289 185.055 5.2196 184.12 5.2196C182.347 5.2196 180.97 5.70428 179.975 6.67364C179.071 7.55818 178.622 8.70323 178.622 10.1088C178.622 11.5144 179.167 12.6231 180.251 13.2713H169.763V5.95874C168.487 5.468 167.02 5.2196 165.372 5.2196C163.546 5.2196 162.132 5.75881 161.138 6.83722C160.251 7.80658 159.802 9.04251 159.802 10.5511C159.802 13.8348 161.677 15.4766 165.432 15.4766H187.816V13.2653H186.175V13.2713ZM167.074 13.2713H165.732C163.629 13.2713 162.575 12.2777 162.575 10.2966C162.575 9.45449 162.797 8.76988 163.24 8.24279C163.689 7.70358 164.3 7.43095 165.073 7.43095C165.846 7.43095 166.54 7.55818 167.074 7.81264V13.2713Z" fill="black"/>
<path d="M209.487 15.4827H209.912V15.4706C209.774 15.4766 209.63 15.4827 209.487 15.4827Z" fill="black"/>
<path d="M235.871 17.6273C235.59 17.3426 235.248 17.2032 234.847 17.2032C234.446 17.2032 234.11 17.3426 233.829 17.6273C233.541 17.9181 233.397 18.2635 233.397 18.6633C233.397 19.0632 233.541 19.4267 233.829 19.7115C234.11 19.9962 234.446 20.1356 234.847 20.1356C235.248 20.1356 235.59 19.9902 235.871 19.6993C236.159 19.4146 236.302 19.0693 236.302 18.6633C236.302 18.2574 236.159 17.9121 235.871 17.6273Z" fill="black"/>
<path d="M252.666 5.22566C250.929 5.22566 249.564 5.74669 248.563 6.79481C247.659 7.75205 247.21 8.94557 247.21 10.3814C247.21 11.8173 247.599 12.8472 248.378 13.4228C248.084 13.3259 247.695 13.2774 247.21 13.2774H240.771C240.825 12.7321 240.855 12.1566 240.855 11.5568C240.855 9.47266 240.345 7.93381 239.327 6.94021C238.267 5.89816 236.578 5.37107 234.26 5.37107C233.451 5.37107 232.559 5.43771 231.571 5.56494V7.75205C232.397 7.63694 233.2 7.57636 233.978 7.57636C235.458 7.57636 236.524 7.92169 237.177 8.6063C237.794 9.25456 238.099 10.2724 238.099 11.6537C238.099 12.1687 238.063 12.7018 237.998 13.2713H221.825V10.1088C221.825 6.84934 220.244 5.22566 217.075 5.22566C215.338 5.22566 213.973 5.74669 212.973 6.79481C212.068 7.75205 211.619 8.94557 211.619 10.3814C211.619 11.4538 211.403 12.2111 210.972 12.6655C210.583 13.0714 209.978 13.2774 209.157 13.2774H199.436V5.9648C198.16 5.47406 196.693 5.22566 195.045 5.22566C193.219 5.22566 191.805 5.76487 190.811 6.84328C189.924 7.81264 189.475 9.04857 189.475 10.5571C189.475 13.8408 191.35 15.4827 195.105 15.4827H196.746V15.8038C196.746 17.6819 195.531 18.627 193.105 18.627C192.015 18.627 190.924 18.5059 189.834 18.2635L189.661 20.5536C190.739 20.7414 191.805 20.8323 192.859 20.8323C195.087 20.8323 196.77 20.3113 197.902 19.2753C198.921 18.3483 199.43 17.0942 199.43 15.519V15.4766H209.469C209.612 15.4766 209.756 15.4766 209.894 15.4645C211.445 15.3797 212.41 14.8344 212.805 13.8166C213.679 14.9253 215.249 15.4766 217.513 15.4766H257.404V10.1027C257.404 6.84328 255.823 5.2196 252.654 5.2196L252.666 5.22566ZM196.758 13.2713H195.417C193.314 13.2713 192.26 12.2777 192.26 10.2966C192.26 9.45449 192.482 8.76988 192.925 8.24279C193.374 7.70358 193.985 7.43095 194.758 7.43095C195.531 7.43095 196.225 7.55818 196.758 7.81264V13.2713ZM219.124 13.2713H217.525C215.428 13.2713 214.374 12.2777 214.374 10.2966C214.374 9.45449 214.59 8.76988 215.033 8.24279C215.488 7.70358 216.105 7.43095 216.878 7.43095C218.375 7.43095 219.124 8.43666 219.124 10.4481V13.2713ZM254.709 13.2713H253.11C251.013 13.2713 249.959 12.2777 249.959 10.2966C249.959 9.45449 250.175 8.76988 250.618 8.24279C251.073 7.70358 251.69 7.43095 252.463 7.43095C253.96 7.43095 254.709 8.43666 254.709 10.4481V13.2713Z" fill="black"/>
<path d="M66.5364 45.9749L65.1947 41.9945H57.9591L56.5815 45.9749H53.6825L60.0256 27.9509H63.3259L69.7349 45.9749H66.5364ZM62.3256 33.5611C61.9722 32.4887 61.7267 31.6708 61.5769 31.0953H61.523C61.3253 31.9132 61.0917 32.725 60.8162 33.5369L58.6779 39.6802H64.4699L62.3316 33.5611H62.3256Z" fill="black"/>
<path d="M71.9811 45.975V26.4788H74.8022V45.975H71.9811Z" fill="black"/>
<path d="M85.2243 45.0238C84.1821 45.8296 82.8104 46.2355 81.0974 46.2355C80.0073 46.2355 79.0369 46.1143 78.1804 45.872L78.402 43.4304C79.2585 43.7697 80.2229 43.9393 81.2771 43.9393C82.0258 43.9393 82.6248 43.7879 83.08 43.4849C83.5412 43.1638 83.7748 42.7397 83.7748 42.2066C83.7748 41.6129 83.4753 41.1524 82.8823 40.8253C82.7086 40.7283 82.0497 40.4799 80.8937 40.0801C78.977 39.4136 78.0187 38.2322 78.0187 36.548C78.0187 35.3302 78.4619 34.3548 79.3484 33.6278C80.2948 32.8341 81.6365 32.4403 83.3855 32.4403C84.1821 32.4403 85.0087 32.5251 85.8592 32.7008L85.7035 34.997C84.9128 34.7546 84.0803 34.6335 83.2177 34.6335C81.6904 34.6335 80.9237 35.1848 80.9237 36.2874C80.9237 36.8509 81.2292 37.3053 81.8401 37.6445C82.0018 37.7294 82.6667 37.9899 83.8407 38.414C85.7753 39.1107 86.7397 40.28 86.7397 41.9218C86.7397 43.1941 86.2306 44.2241 85.2183 45.0238H85.2243Z" fill="black"/>
<path d="M98.2458 45.975C98.2458 44.933 98.3057 44.0605 98.4255 43.3517H98.4016C97.539 45.2722 96.0177 46.2355 93.8374 46.2355C91.2319 46.2355 89.9321 44.8239 89.9321 41.9946V32.6948H92.7293V41.2131C92.7293 42.9761 93.3822 43.8606 94.688 43.8606C95.6703 43.8606 96.4849 43.4002 97.1377 42.4793C97.7906 41.5584 98.12 40.4255 98.12 39.0865V32.6948H100.941V45.969H98.2458V45.975Z" fill="black"/>
<path d="M105.182 45.975V26.4788H108.003V45.975H105.182Z" fill="black"/>
<path d="M119.186 45.9749C119.186 44.9389 119.234 44.121 119.33 43.5212L119.306 43.497C118.569 45.3206 117.113 46.2354 114.945 46.2354C113.825 46.2354 112.933 45.8901 112.262 45.2055C111.597 44.5391 111.267 43.6545 111.267 42.5579C111.267 41.0797 111.956 39.9407 113.328 39.141C114.676 38.3594 116.568 37.9656 119 37.9656V37.4022C119 36.4389 118.808 35.7421 118.431 35.318C118.03 34.8758 117.353 34.6516 116.407 34.6516C115.125 34.6516 113.807 34.9606 112.447 35.5786L111.944 33.3612C113.484 32.7432 115.101 32.4342 116.808 32.4342C118.641 32.4342 119.953 32.8462 120.755 33.6762C121.468 34.4153 121.827 35.5483 121.827 37.0811V42.3398C121.827 43.6424 121.851 44.8541 121.905 45.981H119.186V45.9749ZM119.006 39.8861C115.682 39.8861 114.017 40.6616 114.017 42.2065C114.017 42.7276 114.178 43.1517 114.496 43.4849C114.831 43.8242 115.269 43.9938 115.814 43.9938C116.736 43.9938 117.503 43.6061 118.12 42.8306C118.713 42.0854 119.012 41.219 119.012 40.2375V39.8861H119.006Z" fill="black"/>
<path d="M128.536 29.8291C128.182 30.1745 127.763 30.3502 127.272 30.3502C126.781 30.3502 126.344 30.1745 125.984 29.8291C125.631 29.4899 125.457 29.0658 125.457 28.5629C125.457 28.0601 125.631 27.6481 125.984 27.2967C126.344 26.9392 126.775 26.7635 127.272 26.7635C127.769 26.7635 128.182 26.9392 128.536 27.2967C128.895 27.642 129.075 28.0661 129.075 28.5629C129.075 29.0597 128.895 29.4717 128.536 29.8291ZM125.852 45.975V32.7009H128.674V45.975H125.852Z" fill="black"/>
<path d="M148.907 45.9749V37.5112C148.907 35.7118 148.278 34.8091 147.014 34.8091C146.122 34.8091 145.349 35.2453 144.696 36.1238C143.989 37.0568 143.636 38.2261 143.636 39.6438V45.9689H140.863V37.5052C140.863 35.7058 140.228 34.8031 138.952 34.8031C138.041 34.8031 137.257 35.2575 136.604 36.1723C135.933 37.1053 135.598 38.2564 135.598 39.6438V45.9689H132.776V32.6947H135.472C135.472 33.6944 135.412 34.5668 135.292 35.318L135.346 35.3423C136.191 33.4036 137.664 32.4342 139.784 32.4342C141.905 32.4342 143.085 33.3854 143.42 35.2878C144.265 33.3854 145.726 32.4342 147.805 32.4342C150.41 32.4342 151.71 33.8943 151.71 36.8145V45.9689H148.913L148.907 45.9749Z" fill="black"/>
<path d="M162.767 45.9749C162.767 44.9389 162.815 44.121 162.911 43.5212L162.887 43.497C162.15 45.3206 160.694 46.2354 158.526 46.2354C157.406 46.2354 156.514 45.8901 155.843 45.2055C155.178 44.5391 154.849 43.6545 154.849 42.5579C154.849 41.0797 155.537 39.9407 156.909 39.141C158.257 38.3594 160.149 37.9656 162.581 37.9656V37.4022C162.581 36.4389 162.39 35.7421 162.012 35.318C161.611 34.8758 160.934 34.6516 159.988 34.6516C158.706 34.6516 157.388 34.9606 156.028 35.5786L155.525 33.3612C157.065 32.7432 158.682 32.4342 160.389 32.4342C162.222 32.4342 163.534 32.8462 164.336 33.6762C165.049 34.4153 165.408 35.5483 165.408 37.0811V42.3398C165.408 43.6424 165.432 44.8541 165.486 45.981H162.767V45.9749ZM162.587 39.8861C159.263 39.8861 157.598 40.6616 157.598 42.2065C157.598 42.7276 157.759 43.1517 158.077 43.4849C158.412 43.8242 158.85 43.9938 159.395 43.9938C160.317 43.9938 161.084 43.6061 161.701 42.8306C162.294 42.0854 162.593 41.219 162.593 40.2375V39.8861H162.587Z" fill="black"/>
<path d="M177.633 45.975V37.4567C177.633 35.6937 176.98 34.8092 175.675 34.8092C174.692 34.8092 173.878 35.2696 173.225 36.1905C172.572 37.1114 172.243 38.2443 172.243 39.5954V45.975H169.421V32.7008H172.117C172.117 33.755 172.057 34.6274 171.937 35.3241H171.961C172.818 33.4036 174.345 32.4403 176.525 32.4403C179.131 32.4403 180.43 33.8519 180.43 36.6812V45.981H177.633V45.975Z" fill="black"/>
<path d="M203.593 45.1571C201.736 45.8781 199.747 46.2416 197.621 46.2416C194.782 46.2416 192.578 45.46 191.008 43.8969C189.469 42.3581 188.702 40.2134 188.702 37.4689C188.702 34.5123 189.529 32.1677 191.176 30.441C192.895 28.6235 195.309 27.7147 198.424 27.7147C200.125 27.7147 201.79 27.9692 203.413 28.472L202.808 31.1317C201.341 30.5501 199.801 30.2593 198.202 30.2593C196.052 30.2593 194.416 30.9378 193.29 32.2949C192.29 33.5006 191.793 35.094 191.793 37.069C191.793 39.1531 192.332 40.7768 193.404 41.934C194.476 43.0912 195.998 43.6667 197.968 43.6667C198.921 43.6667 199.837 43.5213 200.718 43.2366V36.6873H203.593V45.1632V45.1571Z" fill="black"/>
<path d="M214.165 35.2696C211.577 34.7668 210.283 36.5359 210.283 40.5769V45.975H207.462V32.7008H210.157C210.157 33.6944 210.068 34.6698 209.888 35.6331H209.954C210.708 33.2885 212.158 32.2283 214.296 32.4646L214.165 35.2696Z" fill="black"/>
<path d="M226.288 44.1998C225.06 45.5569 223.478 46.2354 221.544 46.2354C217.549 46.2354 215.548 43.9938 215.548 39.5045C215.548 37.4688 216.141 35.7906 217.327 34.4699C218.537 33.1128 220.118 32.4342 222.071 32.4342C224.024 32.4342 225.371 32.9552 226.401 33.9973C227.527 35.1363 228.091 36.8327 228.091 39.0864C228.091 41.1463 227.492 42.8487 226.288 44.1998ZM221.849 34.8394C220.915 34.8394 220.136 35.1848 219.513 35.8815C218.818 36.6751 218.471 37.7838 218.471 39.2197C218.471 42.2611 219.591 43.7818 221.825 43.7818C222.796 43.7818 223.58 43.4122 224.173 42.673C224.826 41.8733 225.156 40.7404 225.156 39.2682C225.156 36.3116 224.053 34.8334 221.855 34.8334L221.849 34.8394Z" fill="black"/>
<path d="M239.267 45.975C239.267 44.933 239.327 44.0605 239.447 43.3517H239.423C238.561 45.2722 237.039 46.2355 234.859 46.2355C232.253 46.2355 230.954 44.8239 230.954 41.9946V32.6948H233.751V41.2131C233.751 42.9761 234.404 43.8606 235.709 43.8606C236.692 43.8606 237.506 43.4002 238.159 42.4793C238.812 41.5584 239.142 40.4255 239.142 39.0865V32.6948H241.963V45.969H239.267V45.975Z" fill="black"/>
<path d="M255.721 44.1756C254.523 45.4963 252.84 46.1567 250.666 46.1567C249.893 46.1567 249.228 46.1022 248.677 45.9992V52.4939H245.856V32.6947H248.527C248.527 33.6338 248.473 34.4638 248.372 35.1848H248.426C249.222 33.349 250.642 32.4342 252.666 32.4342C254.224 32.4342 255.416 32.9734 256.248 34.0518C257.081 35.1302 257.5 36.6751 257.5 38.6805C257.5 41.0251 256.907 42.8609 255.721 44.1695V44.1756ZM251.93 34.7849C250.929 34.7849 250.127 35.2999 249.516 36.3238C248.959 37.2446 248.677 38.3231 248.677 39.559V43.6545C249.252 43.8302 249.941 43.915 250.738 43.915C253.253 43.915 254.517 42.2611 254.517 38.9471C254.517 36.1723 253.655 34.7849 251.924 34.7849H251.93Z" fill="black"/>
</g>
<defs>
<clipPath id="clip0_606_8472">
<rect width="257" height="52" fill="white" transform="translate(0.5 0.5)"/>
</clipPath>
</defs>
</svg>
