<svg width="46" height="46" viewBox="0 0 46 46" fill="none" xmlns="http://www.w3.org/2000/svg">
<path d="M45.4587 45.9568H33.1858V28.4842L30.2688 27.1089V23.2981L33.1858 24.6794V0.5H45.4587V17.8152L41.3617 15.8886V15.8825V4.28656H37.2708V42.1703H41.3617V32.3495L38.4387 30.9681V27.1634L45.4587 30.4713V45.9568Z" fill="#00ABBA"/>
<path d="M29.1068 42.1703V22.7468L20.9249 18.8875V4.28656H25.0158V15.8825L29.1008 17.8212V0.5H16.8339V20.7596L25.0158 24.6249V42.1703H20.9249V26.7878L12.7549 22.9285V0.5H0.5V45.9568H4.58497V22.8619L7.50196 24.2432V20.4324L4.58497 19.0571V4.28656H8.66995V45.9568H12.7549V26.7272L16.8399 28.6599V45.9568H29.1068V42.1703Z" fill="#00ABBA"/>
</svg>
